<?xml version="1.0" encoding="utf-8"?>
<!-- Generator: Adobe Illustrator 21.1.0, SVG Export Plug-In . SVG Version: 6.00 Build 0)  -->
<svg version="1.1" id="Layer_1" xmlns="http://www.w3.org/2000/svg" xmlns:xlink="http://www.w3.org/1999/xlink" x="0px" y="0px"
	 width="214px" height="51px" viewBox="0 0 214 51" style="enable-background:new 0 0 214 51;" xml:space="preserve">
<style type="text/css">
	.st0{fill:#FFFFFF;}
</style>
<path class="st0" d="M97.8,32.4c0.1-0.8,0.9-6.1-0.8-5.4c-2.5-4.8-9.8,0.7-9.4,7.6c-0.9,1.8-1.7,2.9-2.3,3.2
	c-0.7-0.1,0.2-7.7,0.3-8.6c0.2-2,1.1-5.3-1.6-4.6c-1.8,0.3-6.3,9.5-7.4,10.7c0.6-2.6,3-9.2-0.9-9.5c-0.8-0.1-1.6,2.5-1.9,5.4
	c-1.5,3.5-2.8,6.7-4,7.7l1.2-16l-1,0c-0.5,0-1.4,2.5-1.6,2.9c-0.7-0.9-1.4-1.2-2.2-1.1c-2.6,0.1-4.5,3.3-5.3,6.8
	c-1.4,1.5-3.3,2.2-5.8,1.4l0.2-2.3c2.9-6.4,8.2-12.9,8.2-19.8c-0.3-5.8-4.3-4.6-7-1c-1.3,1.7-2.3,4.9-3.1,8.8
	c-5-0.2-11.6,0-17.7,0.5c0.1-0.6,0.2-1.1,0.3-1.6c1.1,0.1,6.1,0.5,6.2-0.8c0-0.9-5.1-1.3-6-1.3c0.1-1.2,1.1-4.9-0.2-5.2
	c-1.5-0.4-2.6,3.9-2.9,5c-0.8-0.1-6.1-0.8-6.1,0.4c0,1.2,4.9,1.6,5.6,1.6c-0.2,0.7-0.3,1.5-0.4,2.2c-2.6,0.2-5.1,0.5-7.1,0.8
	c-2.2-5-7.9-10.5-7.2-15.2c0.7-4.3,6.5-3.2,7.7,4.7l0.5-0.2C26.8-0.6,15.1-2.1,13.7,3.5c-1.3,5.3,6.9,11.3,9.2,17.2
	c-35.5,4.5-23.4,33-5.9,26.7c11.2-4,12.6-15,9.1-25.3c1.6-0.4,3.7-0.7,6-1c-2.2,13.7,0.2,26.5,7.7,13.2c0,3.2,0.9,5.9,3.3,5.9
	c3.2,0,6.1-3.4,8.4-7.2C51,38.7,50.9,44.1,51,46.9c0.1,2,0.9,4.4,3.3,4.4c3.5,0,5.3-5.5,5.3-8.4c0-2.4-0.9-5.1-2.7-8
	c1.4,0,2.6-0.5,3.6-1.2c-0.3,3.6,0.8,7,3.6,6.8c0.9-0.1,2-0.8,2.9-2c-0.3,1.6,0.2,2.4,1.8,2.3c1.6-0.1,3.2-3.2,4.6-6.5
	c0,2.5,0.4,4.7,1.5,4.7c2.8,0.1,6.4-9.1,8.8-11.5c-1,2.7-2,5.7-2.3,8.6c-0.2,1.9,0.4,3.8,2.5,4c1.3,0.1,2.7-1.4,3.9-3.4
	c1.5,4.3,7.7,5.6,9.6-2.7c2.6-0.4,3.5-1.5,5.5-5.9h-1.1C100.3,31,99,32.4,97.8,32.4z M16.5,45.3c-14.3,4.5-20.1-19.9,7-22.9
	C26.2,30.1,25.9,42.4,16.5,45.3z M57.6,13.6c1.2-3.5,3.3-6.1,3.3-0.5c0,4.8-2.8,8.8-5.1,12.8c0.1-2.6,0.2-4.6,0.5-6.7
	c0.2,0,0.3,0,0.5,0l0.1-0.3c-0.2,0-0.3,0-0.5,0C56.6,17.2,57,15.6,57.6,13.6z M43.8,38.5c-1.5-0.2-0.5-3-0.1-3.8
	c1.8-2,9.5-10.6,2.9-11.7c-3.1-0.5-5.5,3.6-6.4,8c-1.6,3.2-3.7,6.8-4.6,5.5c-1.4-4.3-0.9-10.8-0.1-15.9c4.8-0.5,10.7-1,17.8-1.3
	c-0.6,3.2-1.1,6.7-1.5,10.3C49.7,33.3,46,38.7,43.8,38.5z M43.8,31.7c0.2-1,2-7.3,3.3-6C47,26.6,44.4,31.1,43.8,31.7z M55.5,49.3
	c-2.1,0-0.7-12-0.6-14C56.8,37.7,59.5,49.3,55.5,49.3z M67.2,34.7c-0.2,0.8-1.6,4-2.5,4.1c-1.4,0.1-1.4-12.1,2-12.3
	c0.3,2,0,2.7-0.8,4.7l0.5,0.3l1.1-1.1L67.2,34.7z M93.5,28.1c-1.5,2.4,0,5.2,2.6,5.6C94.2,41.4,88,34,93.5,28.1z M96.4,32.3
	c-1.7,0-2.6-2.8-0.6-4.5c0.1,0.5-0.1,0.9-0.5,1.3c0.1,0.1,0.2,0.1,0.3,0.2c0.8-0.2,0.9-0.5,1.2-0.8C96.8,29.9,96.7,31.1,96.4,32.3z"
	/>
<path class="st0" d="M168,19.2l0.1-0.3c-7.5-0.6-23,0.1-31.5,1.4c-2.2-5-7.9-10.5-7.2-15.2c0.7-4.3,6.5-3.2,7.7,4.7l0.5-0.2
	C138-0.6,126.4-2.1,125,3.5c-1.3,5.3,6.9,11.3,9.2,17.2c-35.5,4.5-23.4,33-5.9,26.7c11.2-4,12.6-15,9.1-25.3
	C143,20.8,153.3,19.8,168,19.2z M127.8,45.3c-14.3,4.5-20.1-19.9,7-22.9C137.5,30.1,137.1,42.4,127.8,45.3z"/>
<path class="st0" d="M193,28h-1.1c-1.6,3-3,4.4-4.1,4.4c0.1-0.8,0.9-6.1-0.8-5.4c-1.3-2.5-4-2.2-6.1-0.3h-0.2c0,0,0,0.1-0.1,0.3
	c-1.5,1.4-2.7,3.6-3,6.1c-1.4,2.4-2.8,4.4-3.5,3.5c-1.7-5.3-0.7-13.7,0.5-19c1.1,0.1,6.1,0.5,6.2-0.8c0-0.9-5.1-1.3-6-1.3
	c0.1-1.2,1.1-4.9-0.2-5.2c-1.5-0.4-2.6,3.9-2.9,5c-0.8-0.1-6.1-0.8-6.1,0.4c0,1.2,4.9,1.6,5.6,1.6c-1,4.7-1.5,9.6-1.5,13.6
	c-1.8,4.2-3.1,6.5-4,7c-0.7-0.1,0.2-7.7,0.3-8.6c0.2-2,1.1-5.3-1.6-4.6c-1.8,0.3-6.3,9.5-7.4,10.7c0.6-2.6,3-9.2-0.9-9.5
	c-0.8-0.1-1.6,2.5-1.9,5.4c-1.5,3.5-2.8,6.7-4,7.7l1.2-16l-1,0c-0.5,0-1.4,2.5-1.6,2.9c-0.7-0.9-1.4-1.2-2.2-1.1
	c-5.9,0.3-8.1,15.9-1.9,15.6c0.9-0.1,2-0.8,2.9-2c-0.3,1.6,0.2,2.4,1.8,2.3c1.6-0.1,3.2-3.2,4.6-6.5c0,2.5,0.4,4.7,1.5,4.7
	c2.8,0.1,6.4-9.1,8.8-11.5c-1,2.7-2,5.7-2.3,8.6c-0.2,1.9,0.4,3.8,2.5,4c1.9,0.2,3.9-3,5.4-6.4c0.6,6.4,3.1,9.1,7.6,1.8
	c0,0.1,0,0.1,0,0.2c0.8,5,7.8,7.2,9.8-1.7C190,33.5,190.9,32.4,193,28z M147.8,34.7c-0.2,0.8-1.6,4-2.5,4.1
	c-1.4,0.1-1.4-12.1,2-12.3c0.3,2,0,2.7-0.8,4.7l0.5,0.3l1.1-1.1L147.8,34.7z M183.4,28.1c-1.5,2.4,0,5.2,2.6,5.6
	C184.2,41.4,177.9,34,183.4,28.1z M186.3,32.3c-1.7,0-2.6-2.8-0.6-4.5c0.1,0.5-0.1,0.9-0.5,1.3c0.1,0.1,0.2,0.1,0.3,0.2
	c0.8-0.2,0.9-0.5,1.2-0.8C186.8,29.9,186.6,31.1,186.3,32.3z"/>
<path class="st0" d="M213,28c-1.6,3-3,4.4-4.1,4.4c0.1-0.8,0.9-6.1-0.8-5.4c-2.1-4-7.3-0.9-9,4.1c-2.1,3.5-4.7,7.7-6.8,9.3
	c-1.6-0.9,4.9-11.2,5.2-13.3c0.4-2.1-2.3-1.4-4.2-1.9c4.9-10.1-5.2-6.5-5-1.4c0.1,3.1,3.3,3.4,5.7,3.4c-1.7,2.8-8.4,12.4-4.1,15.3
	c2.1,1.3,5.8-3.8,8.6-8.5c0,0.5,0,1,0.1,1.6c0.8,5,7.8,7.2,9.8-1.7c2.6-0.4,3.5-1.5,5.5-5.9H213z M204.5,28.1
	c-1.5,2.4,0,5.2,2.6,5.6C205.3,41.4,199,34,204.5,28.1z M207.4,32.3c-1.7,0-2.6-2.8-0.6-4.5c0.1,0.5-0.1,0.9-0.5,1.3
	c0.1,0.1,0.2,0.1,0.3,0.2c0.8-0.2,0.9-0.5,1.2-0.8C207.9,29.9,207.7,31.1,207.4,32.3z"/>
</svg>
